<svg width="512" height="521" viewBox="0 0 512 521" fill="none" xmlns="http://www.w3.org/2000/svg">
    <path d="M461.645 253.904C461.645 253.904 471.173 54 251.473 54C57.1767 54 51.1061 245.76 51.1061 245.76C51.1061 245.76 22.5236 466 255.948 466C479.825 466 461.645 253.904 461.645 253.904ZM190.002 184.057C231.228 158.835 283.893 174.253 303.624 212.176C307.357 219.366 307.84 230.426 305.471 237.971C297.296 264.004 277.983 278.604 251.486 284.804C259.301 278.109 265.52 270.532 267.496 260.051C268.529 255.085 268.507 249.956 267.433 244.998C266.358 240.04 264.255 235.363 261.258 231.269C256.561 224.818 249.892 220.071 242.258 217.745C234.625 215.419 226.442 215.64 218.945 218.375C202.626 224.568 193.69 239.458 195.3 257.773C196.793 274.768 209.7 285.795 233.835 289.979L224.732 294.808C213.672 300.859 204.055 309.228 196.516 319.347C194.07 322.656 192.384 322.92 188.65 320.635C140.111 291.022 137.002 216.476 189.937 184.057H190.002ZM153.681 367.442C145.956 369.418 138.328 372.347 130.358 374.974C134.259 348.677 165.121 324.452 191.103 327.207C183.556 337.603 179.151 349.944 178.408 362.768C169.756 364.365 161.664 365.433 153.681 367.442ZM319.563 110.65C327.269 110.933 334.987 110.817 342.693 110.998C344.617 111.125 346.53 111.392 348.416 111.796C346.691 114.371 344.746 116.946 342.596 119.263C339.841 121.838 336.725 124.413 332.747 120.441C331.794 119.502 329.528 119.72 327.874 119.695C320.149 119.592 312.533 119.347 304.879 119.63C298.235 119.843 291.618 120.519 285.071 121.652C283.783 121.871 282.007 125.952 282.573 127.458C283.906 131.012 285.843 134.926 288.721 137.192C299.343 145.58 310.653 153.118 321.333 161.448C331.711 169.547 341.367 178.418 347.257 190.636C354.982 206.556 355.149 223.242 351.841 240.012C346.317 267.995 332.155 291.19 309.224 308.024C299.987 314.809 288.541 318.659 277.957 323.474C268.649 327.761 259.07 331.456 249.735 335.705C232.914 343.353 223.457 361.609 226.238 380.594C228.788 398.014 244.07 412.549 261.645 415.549C282.644 419.154 304.313 405.507 309.45 384.154C315.224 360.142 302.188 338.718 277.777 332.222L273.38 331.089C279.908 328.173 285.612 326.094 290.762 323.236C299.847 318.236 308.765 312.942 317.516 307.354C320.091 305.706 321.481 305.706 323.677 307.612C340.466 322.128 350.482 340.185 353.289 362.33C357.937 398.979 340.588 432.641 307.872 449.893C257.254 476.59 195.306 446.205 184.131 390.025C174.552 341.956 208.477 298.355 249.31 289.934C266.872 286.317 282.927 279.003 295.416 265.472C303.463 256.743 307.377 249.249 308.703 245.883C311.18 239.55 312.446 232.809 312.437 226.01C312.168 220.128 310.785 214.35 308.362 208.983C304.1 199.327 287.762 183.877 283.725 180.548L245.274 150.447C243.987 149.333 242.39 149.417 239.081 149.635C235.219 149.893 225.112 150.459 220.773 149.314C224.281 146.661 233.841 142.799 237.942 139.69C225.479 131.269 211.258 134.314 198.197 131.797C201.222 126.171 216.222 117.525 224.59 116.566C224.089 111.82 223.315 107.106 222.273 102.449C221.758 100.537 219.621 98.6827 217.767 97.5947C213.26 95.0197 208.471 92.7666 203.282 90.1272C207.928 87.1241 213.312 85.4581 218.842 85.312C224.082 85.1189 229.322 85.621 234.421 86.8312C243.678 88.9556 251.068 87.5651 258.432 81.2692C252.639 78.9324 246.845 76.8016 241.212 74.2781C235.694 71.7709 230.316 68.9687 225.099 65.8836C239.686 67.9114 253.797 73.3769 268.713 71.3812C268.842 70.7032 268.971 70.0251 269.099 69.347L234.337 61.3387C255.001 59.4526 274.217 59.1371 292.435 68.008C297.56 70.5057 302.928 72.5142 307.834 75.4111C310.229 76.8016 311.844 79.544 313.808 81.6748C315.366 83.3679 316.621 85.6339 318.539 86.6574C325.814 90.5199 333.828 90.6809 341.991 90.4878L342.171 87.7518C350.386 90.3268 359.63 99.7899 359.553 106.71C346.246 106.71 332.947 106.659 319.64 106.775C318.224 106.787 316.808 107.824 315.391 108.384C316.679 109.169 318.057 110.573 319.434 110.637L319.563 110.65ZM302.394 90.9512C301.847 91.2924 301.493 91.8718 301.448 92.5156C301.425 92.8317 301.475 93.149 301.594 93.4427C301.714 93.7363 301.899 93.9985 302.137 94.2086C302.542 94.9197 303.214 95.4406 304.004 95.6571C304.789 95.8695 305.639 95.7536 306.347 95.3352L310.435 93.1851L307.216 90.3912C305.413 88.8977 303.907 89.8376 302.452 90.9512H302.394Z"
          fill="#F60910"/>
</svg>
