<svg width="72" height="72" viewBox="0 0 72 72" fill="none" xmlns="http://www.w3.org/2000/svg">
    <path d="M47.106 9.90156C48.4524 9.951 49.8012 9.9306 51.1485 9.96251C51.5517 9.97211 51.9529 10.0732 52.1485 10.1017C51.8262 10.5253 51.5373 11.0281 51.1319 11.4058C50.6503 11.8546 50.1062 12.2933 49.4121 11.6113C49.2453 11.4471 48.851 11.4848 48.5604 11.481C47.2207 11.4634 45.8792 11.4205 44.5414 11.4711C43.3825 11.5148 42.2185 11.6202 41.0795 11.8246C40.865 11.863 40.5444 12.5761 40.643 12.8391C40.8755 13.4595 41.2149 14.1437 41.7177 14.5404C43.5752 16.0068 45.5509 17.3234 47.4168 18.7797C49.2302 20.1949 50.9181 21.7455 51.9467 23.8803C53.2868 26.6618 53.326 29.5784 52.748 32.508C51.7833 37.3986 49.3082 41.4505 45.3006 44.3935C43.6856 45.5793 41.686 46.2523 39.8366 47.1042C38.2099 47.8535 36.5355 48.4988 34.905 49.2404C31.9653 50.5769 30.3132 53.7679 30.7992 57.0853C31.2453 60.1297 33.916 62.6702 36.9754 63.1946C40.6454 63.8239 44.4325 61.4388 45.3303 57.7086C46.3397 53.514 44.0607 49.7689 39.7946 48.6335C39.6069 48.5836 39.4183 48.5363 39.0264 48.435C40.1676 47.9252 41.1532 47.5619 42.063 47.0613C43.6516 46.188 45.2109 45.2626 46.7384 44.2865C47.1881 43.9987 47.4312 43.9987 47.8147 44.3304C50.7487 46.8669 52.4989 50.0226 52.9897 53.8913C53.8019 60.2955 50.7705 66.1785 45.0526 69.194C36.2065 73.8592 25.3815 68.5491 23.4275 58.7418C21.754 50.341 27.6826 42.721 34.8181 41.2498C37.8869 40.6172 40.6931 39.3397 42.8747 36.9762C44.2823 35.4513 44.9648 34.1429 45.1971 33.5525C45.751 32.1459 45.8499 30.8852 45.8504 30.08C45.8504 29.7798 45.7729 28.5501 45.1386 27.1043C44.3936 25.4064 41.5398 22.7052 40.8333 22.1357L34.1135 16.8746C33.8764 16.6797 33.6095 16.6939 33.0316 16.733C32.345 16.7795 30.5896 16.8767 29.8322 16.6783C30.4449 16.2146 32.1153 15.5395 32.8326 14.9966C30.6549 13.5255 28.1695 14.0568 25.8867 13.6176C26.4147 12.6346 29.0263 11.1241 30.5114 10.9559C30.3864 10.1303 30.3237 9.28837 30.1065 8.48847C30.0158 8.1544 29.6431 7.83065 29.3177 7.64009C28.5291 7.17762 27.6932 6.79604 26.7862 6.33621C27.6332 5.77006 28.5727 5.54039 29.5056 5.49503C30.4089 5.45087 31.3447 5.55814 32.229 5.76022C33.8471 6.13005 35.139 5.88862 36.4261 4.78873C35.4128 4.38074 34.3998 4.00803 33.4172 3.56692C32.4501 3.13301 31.5141 2.63022 30.5904 2.08903C33.1396 2.44326 35.6053 3.39916 38.2118 3.04973L38.2783 2.69454L32.2235 1.28505C35.833 0.954576 39.1934 0.900098 42.3755 2.44998C43.2709 2.88605 44.2079 3.24724 45.0661 3.74523C45.4846 3.98834 45.7666 4.46713 46.1101 4.8396C46.3827 5.13527 46.6018 5.53174 46.9371 5.70982C48.209 6.38636 49.6092 6.41276 51.0354 6.37892L51.0669 5.90062C52.5025 6.34917 54.1184 8.00489 54.1158 9.21398C51.79 9.21398 49.4659 9.20509 47.1423 9.22669C46.8941 9.22909 46.6474 9.41053 46.4 9.50893C46.6352 9.64597 46.8663 9.89268 47.106 9.90156ZM18.1196 54.7756C16.7571 55.1215 15.4369 55.6334 14.044 56.0901C14.7253 51.494 20.1077 47.2612 24.6591 47.7441C23.2494 49.6506 22.5981 51.8072 22.4411 53.9582C20.9287 54.2369 19.5034 54.4243 18.1196 54.7756ZM24.4672 22.7292C31.6711 18.322 40.8743 21.0157 44.3231 27.6434C44.9766 28.8995 45.0596 30.8331 44.6458 32.1509C43.2167 36.7002 39.8424 39.2514 35.211 40.3354C36.5763 39.1664 37.6632 37.8409 38.0091 36.0095C38.3575 34.1647 37.9891 32.4963 36.919 30.98C35.2935 28.677 32.1508 27.7295 29.5245 28.7267C26.6732 29.8093 25.1113 32.4116 25.3928 35.6104C25.6544 38.5818 27.9089 40.5075 32.1273 41.239C31.4968 41.5728 31.0113 41.8186 30.5361 42.0833C28.5922 43.1662 26.93 44.5836 25.6057 46.3715C25.1778 46.9494 24.8833 46.996 24.2312 46.5974C15.7503 41.4111 15.2053 28.3953 24.4672 22.7292ZM71.938 34.9358C71.938 34.9358 73.6033 0.00228697 35.2093 0.00228697C1.25493 0.00228697 0.194158 33.5127 0.194158 33.5127C0.194158 33.5127 -4.80036 72.0005 35.9917 72.0005C75.1155 72.0005 71.938 34.9358 71.938 34.9358Z"
          fill="#888888"/>
    <path d="M44.1085 6.46005C43.8814 6.63381 43.909 6.82604 44.0631 7.02859C44.2527 7.27819 44.487 7.38379 44.8004 7.22587C45.0243 7.11284 45.2439 6.9926 45.5144 6.8498C45.2965 6.6638 45.1217 6.51021 44.9417 6.36214C44.6254 6.1015 44.3631 6.26518 44.1085 6.46005Z"
          fill="#888888"/>
</svg>
